<?xml version="1.0" encoding="UTF-8"?>
<svg xmlns="http://www.w3.org/2000/svg" viewBox="0 0 1200 650">
  <title>Flat World Map — Stylized Realistic Silhouettes</title>
  <defs>
    <style>
      .land { fill:#e6f4ff; stroke:#3b82f6; stroke-width:3; stroke-linejoin:round; }
      .hint { fill:#cbd5e1; }
      .label { font:600 14px/1 'Inter', system-ui, -apple-system, Segoe UI, Roboto, Helvetica, Arial, sans-serif; fill:#0f172a; }
    </style>
  </defs>

  <!-- Transparent background; add a rectangle if you want a filled ocean. -->

  <!-- NORTH AMERICA -->
  <path id="north-america" class="land" d="
    M145,155
    l40,-30 55,-12 40,10 25,22 40,-8 28,-15 18,18 -10,22 16,22 -20,15 -8,30 -25,12 -20,28 15,20 -3,30 -35,18 -45,16 -45,-2 -35,-18 -25,-20 -20,-28 -18,-25 8,-22 15,-18 18,-15 20,-20 z
    m180,195 20,18 25,5 22,-5 12,-10 -5,-10 -22,2 -20,12 -12,-12 z" />

  <!-- GREENLAND -->
  <path id="greenland" class="land" d="
    M455,95 l45,-20 30,5 18,18 -8,22 -30,18 -35,5 -25,-12 5,-20 z" />

  <!-- SOUTH AMERICA -->
  <path id="south-america" class="land" d="
    M340,355
    l25,25 10,35 -5,40 18,35 15,55 -15,55 -25,45 -25,15 -18,-8 -5,-25 10,-35 0,-45 -18,-40 8,-35 -8,-25 8,-20 25,-25 30,-22 z" />

  <!-- EUROPE + NORTH AFRICA + MIDDLE EAST -->
  <path id="europe-me" class="land" d="
    M610,170
    l40,-20 55,-10 35,10 30,20 18,20 -10,20 20,10 15,10 -10,18 -35,5 -30,-10 -18,15 -30,5 -25,10 -22,-10 -25,15 -30,0 -28,-15 -10,-22 20,-15 25,-18 25,-18 z
    m-20,105 l15,15 25,0 18,-10 15,-10 -10,-10 -25,5 -28,10 z
    m-25,45 l-10,20 20,10 30,0 20,-10 0,-15 -25,-5 -35,0 z" />

  <!-- AFRICA -->
  <path id="africa" class="land" d="
    M585,300
    l40,10 35,25 20,45 -5,35 -15,40 -10,30 5,35 -10,40 -25,30 -20,20 -18,0 -18,-25 -15,-35 -20,-25 -18,-35 -10,-40 5,-35 10,-35 18,-30 22,-25 32,-25 z" />

  <!-- ASIA -->
  <path id="asia" class="land" d="
    M760,200
    l45,-25 55,-10 45,15 40,20 30,30 -10,25 25,15 25,10 -5,15 -35,10 -25,10 -15,15 20,10 15,15 -10,10 -30,0 -25,-10 -30,10 -30,5 -30,-10 -25,-15 -20,-20 -25,-10 -25,5 -22,-10 -15,-25 10,-20 25,-15 30,-20 z" />

  <!-- INDIA / SE ASIA BULGE -->
  <path id="india-seasia" class="land" d="
    M885,330
    l25,20 10,25 -5,25 -20,10 -20,-5 -10,-20 5,-25 15,-20 z
    m55,40 l35,15 20,15 10,15 -5,15 -15,10 -25,-10 -20,-15 -10,-20 10,-15 z" />

  <!-- JAPAN -->
  <path id="japan" class="land" d="
    M1030,275 l12,12 -8,15 15,12 -10,15 -15,-8 5,-20 -5,-12 z" />

  <!-- INDONESIA ISLANDS (hints) -->
  <path id="indonesia" class="land" d="
    M965,420 l25,8 20,10 -20,8 -25,-8 -15,-10 15,-8 z
    m60,25 l20,8 -12,10 -18,-8 10,-10 z" />

  <!-- AUSTRALIA -->
  <path id="australia" class="land" d="
    M1030,470
    l55,15 35,25 10,25 -20,25 -45,15 -45,-5 -35,-20 -10,-20 10,-20 35,-20 z" />

  <!-- NEW ZEALAND -->
  <path id="nz" class="land" d="
    M1150,560 l18,10 -10,12 -18,-10 10,-12 z" />

  <!-- Labels (optional; delete if you want pure shapes) -->
  <text class="label" x="210" y="150">N. America</text>
  <text class="label" x="380" y="520">S. America</text>
  <text class="label" x="630" y="195">Europe</text>
  <text class="label" x="640" y="445">Africa</text>
  <text class="label" x="865" y="210">Asia</text>
  <text class="label" x="1050" y="520">Australia</text>
</svg>
